# This file uses centimeters as units for non-parametric coordinates.

mtllib cubeSky.mtl
v -17.500000 -17.500000 17.500000
v 17.500000 -17.500000 17.500000
v -17.500000 17.500000 17.500000
v 17.500000 17.500000 17.500000
v -17.500000 17.500000 -17.500000
v 17.500000 17.500000 -17.500000
v -17.500000 -17.500000 -17.500000
v 17.500000 -17.500000 -17.500000
vt 0.668357 0.997960
vt 0.338911 0.997960
vt 0.668357 0.668514
vt 0.338911 0.668514
vt 0.618256 0.664734
vt 0.618256 0.335268
vt 0.947721 0.664734
vt 0.947721 0.335268
vt 0.331361 0.668544
vt 0.331361 0.998009
vt 0.001895 0.668544
vt 0.001895 0.998009
vt 0.338931 0.001993
vt 0.668377 0.001993
vt 0.338931 0.331478
vt 0.668377 0.331478
vn 0.000000 0.000000 -1.000000
vn 0.000000 0.000000 -1.000000
vn 0.000000 0.000000 -1.000000
vn 0.000000 0.000000 -1.000000
vn 0.000000 0.000000 -1.000000
vn 0.000000 0.000000 -1.000000
vn 0.000000 -1.000000 0.000000
vn 0.000000 -1.000000 0.000000
vn 0.000000 -1.000000 0.000000
vn 0.000000 -1.000000 0.000000
vn 0.000000 -1.000000 0.000000
vn 0.000000 -1.000000 0.000000
vn -1.000000 0.000000 0.000000
vn -1.000000 0.000000 0.000000
vn -1.000000 0.000000 0.000000
vn -1.000000 0.000000 0.000000
vn -1.000000 0.000000 0.000000
vn -1.000000 0.000000 0.000000
vn 1.000000 0.000000 0.000000
vn 1.000000 0.000000 0.000000
vn 1.000000 0.000000 0.000000
vn 1.000000 0.000000 0.000000
vn 1.000000 0.000000 0.000000
vn 1.000000 0.000000 0.000000
usemtl cubeSky:initialShadingGroup
f 1/1/1 3/2/2 2/3/3
f 3/2/4 4/4/5 2/3/6
f 3/5/7 5/6/8 4/7/9
f 5/6/10 6/8/11 4/7/12
f 2/9/13 4/10/14 8/11/15
f 4/10/16 6/12/17 8/11/18
f 7/13/19 5/14/20 1/15/21
f 5/14/22 3/16/23 1/15/24
